<?xml version="1.0" encoding="UTF-8" standalone="no"?>
<!-- Created with Inkscape (http://www.inkscape.org/) -->

<svg
   xmlns:dc="http://purl.org/dc/elements/1.1/"
   xmlns:cc="http://creativecommons.org/ns#"
   xmlns:rdf="http://www.w3.org/1999/02/22-rdf-syntax-ns#"
   xmlns:svg="http://www.w3.org/2000/svg"
   xmlns="http://www.w3.org/2000/svg"
   xmlns:sodipodi="http://sodipodi.sourceforge.net/DTD/sodipodi-0.dtd"
   xmlns:inkscape="http://www.inkscape.org/namespaces/inkscape"
   width="101.65235mm"
   height="33.3535mm"
   viewBox="0 0 360.1855 118.18169"
   id="svg16306"
   version="1.1"
   inkscape:version="0.91 r13725"
   sodipodi:docname="Camp16Logo.svg">
  <defs
     id="defs16308" />
  <sodipodi:namedview
     id="base"
     pagecolor="#ffffff"
     bordercolor="#666666"
     borderopacity="1.0"
     inkscape:pageopacity="0.0"
     inkscape:pageshadow="2"
     inkscape:zoom="0.35"
     inkscape:cx="-229.19297"
     inkscape:cy="-0.90915472"
     inkscape:document-units="px"
     inkscape:current-layer="layer1"
     showgrid="false"
     fit-margin-top="0"
     fit-margin-left="0"
     fit-margin-right="0"
     fit-margin-bottom="0"
     inkscape:window-width="1916"
     inkscape:window-height="1041"
     inkscape:window-x="0"
     inkscape:window-y="18"
     inkscape:window-maximized="0" />
  <metadata
     id="metadata16311">
    <rdf:RDF>
      <cc:Work
         rdf:about="">
        <dc:format>image/svg+xml</dc:format>
        <dc:type
           rdf:resource="http://purl.org/dc/dcmitype/StillImage" />
        <dc:title></dc:title>
      </cc:Work>
    </rdf:RDF>
  </metadata>
  <g
     inkscape:label="Layer 1"
     inkscape:groupmode="layer"
     id="layer1"
     transform="translate(-105.62154,-413.27135)">
    <path
       inkscape:connector-curvature="0"
       style="fill:#ff6600;fill-opacity:1;fill-rule:evenodd;stroke:none"
       d="m 377.49264,413.27135 -42.2852,14.2461 0,9.8516 21.2188,-0.1504 1.2129,37.7383 -1.8204,36.832 21.2207,0 -1.8203,-39.4082 2.2735,-59.1094 z m 58,0 c -12.9336,12.4283 -22.4316,23.7438 -28.4942,33.9492 -5.9616,10.2055 -8.9414,20.5638 -8.9414,31.0723 0,10.5085 2.9305,18.9961 8.791,25.4629 5.8606,6.4668 13.6397,9.6992 23.3399,9.6992 9.8013,0 18.1881,-3.2837 25.1601,-9.8516 6.972,-6.5678 10.459,-14.3488 10.459,-23.3418 0,-8.9928 -2.4766,-16.2155 -7.4277,-21.6718 -4.8501,-5.4564 -10.9124,-8.1856 -18.1875,-8.1856 -7.2751,0 -14.0458,2.4253 -20.3106,7.2754 5.2543,-11.2159 17.4814,-23.0384 36.6797,-35.4668 l -21.0683,-8.9414 z m -230.2891,1.4649 c -0.327,-0.079 -0.5754,0.099 -1.2265,0.6933 -0.4436,0.4047 -0.9955,0.8333 -1.2247,0.9531 -0.5757,0.3013 -2.6841,0.2671 -4.7343,-0.076 -2.2137,-0.3777 -5.83,-0.3789 -8.0118,-0.01 -2.5589,0.4329 -3.8907,0.3855 -5.2968,-0.1875 -1.3937,-0.568 -1.794,-0.5126 -2.9082,0.4004 -0.9457,0.775 -1.4468,0.8112 -2.4785,0.1758 -0.4197,-0.2585 -0.8671,-0.4727 -0.9942,-0.4727 -0.1883,-8e-4 -0.8183,1.6216 -0.8183,2.1074 0,0.072 0.349,0.1794 0.7753,0.2364 1.345,0.1804 2.7992,1.0615 4.9122,2.9804 2.3556,2.1395 3.7844,3.8304 4.0468,4.7852 0.1013,0.3683 0.4506,1.8276 0.7754,3.2441 0.7572,3.3016 0.7383,5.0568 -0.064,5.8594 -0.4943,0.4943 -0.5553,0.5061 -1.3321,0.2832 -2.4317,-0.6977 -3.7543,-0.858 -7.205,-0.873 -3.228,-0.014 -3.6185,0.021 -4.5782,0.4101 -1.1504,0.4658 -1.6811,0.4786 -2.0293,0.2285 -0.022,-0.016 -0.082,0.055 -0.1582,0.1719 l -1.2441,-2.3711 c -0.4225,-0.8892 -0.7676,-1.6807 -0.7676,-1.7598 0,-0.079 -0.2614,-0.461 -0.5801,-0.8476 -0.4796,-0.5819 -0.7722,-0.7414 -1.6992,-0.9238 -0.616,-0.1212 -2.1364,-0.7198 -3.3789,-1.3321 l -2.2578,-1.1132 -0.625,0.705 c -0.3434,0.388 -0.9442,1.3421 -1.334,2.1211 -0.5832,1.1652 -0.7053,1.6104 -0.6933,2.5137 0.021,1.5091 0.8659,3.2172 1.7324,3.5019 0.8234,0.2705 0.8914,0.3693 0.8574,1.2422 -0.023,0.582 0.058,0.8057 0.3516,0.9629 0.2104,0.1127 1.6247,0.292 3.1425,0.3985 1.5178,0.1066 3.1262,0.3087 3.5743,0.4492 0.4482,0.1403 1.3991,-0.1333 1.4941,-0.1543 0.04,-0.01 0.2145,-0.1504 0.4141,-0.375 -0.097,0.3648 -0.166,0.5678 -0.1993,0.582 -0.044,0.019 0.6524,0.424 1.4903,0.461 1.3058,0.059 1.5642,0.1292 1.8144,0.4863 0.1984,0.2832 0.5815,0.4569 1.1953,0.5449 0.4968,0.071 1.1709,0.2909 1.4981,0.4883 0.4279,0.2584 0.9591,0.3594 1.8945,0.3594 0.9184,0 1.5363,0.114 2.1035,0.3886 0.4416,0.2139 2.5516,1.9635 4.6875,3.8887 3.4198,3.0825 3.9666,3.6575 4.5821,4.8106 1.9533,3.6594 2.079,7.7622 0.2734,8.9453 -0.4468,0.2928 -0.4961,0.4426 -0.4961,1.539 0,0.676 0.1379,1.5567 0.3106,1.9883 0.4143,1.0354 0.256,2.0424 -0.4903,3.127 -0.689,1.0014 -1.4189,1.4472 -2.373,1.4472 l -0.666,0 0.5722,1.2617 c 0.3144,0.6933 0.5334,1.2998 0.4864,1.3458 -0.4655,0.4655 -3.2569,2.4344 -3.8457,2.7128 -1.0844,0.5126 -1.2006,0.4375 -1.5157,-0.9785 -0.1639,-0.7369 -0.7769,-0.6916 -1.2558,0.094 -0.4799,0.7838 -0.4794,1.1403 0,1.5742 0.4374,0.3959 0.4979,1.1983 0.1289,1.7031 -0.2363,0.3237 -0.2889,0.3261 -0.8477,0.037 -0.7466,-0.3857 -1.4524,-0.3942 -1.7617,-0.021 -0.3049,0.3673 -0.088,0.6388 1.1289,1.42 1.0981,0.7046 1.6523,0.7278 2.8574,0.1172 1.8336,-0.9293 6.5192,-1.1115 9.5586,-0.3711 1.6559,0.4034 2.7582,0.3507 4.5547,-0.2168 1.8217,-0.5755 2.616,-0.6896 5.0781,-0.7286 1.5645,-0.025 1.9159,-0.084 1.9629,-0.33 0.032,-0.165 -0.2892,-0.894 -0.7129,-1.6192 -0.8892,-1.5215 -0.9243,-1.7954 -0.3476,-2.7285 0.3452,-0.5584 0.4297,-0.9716 0.4297,-2.2461 0.01,-1.3624 -0.05,-1.6222 -0.4239,-2.0215 -0.5261,-0.561 -0.5317,-0.7221 -0.049,-1.623 0.4617,-0.8609 0.4741,-1.352 0.076,-3.043 -0.236,-1.004 -0.272,-1.6912 -0.1563,-3.0176 0.083,-0.9443 0.1541,-2.8745 0.1641,-4.291 0.01,-1.4165 0.079,-2.7471 0.1601,-2.957 0.081,-0.2098 0.4418,-0.597 0.8028,-0.8594 1.14,-0.8283 1.0391,-1.2987 -0.4102,-1.9199 -0.44,-0.1887 -0.8916,-0.5147 -1.0039,-0.7246 -0.4775,-0.8923 -0.01,-3.2695 0.6465,-3.2695 0.6684,0 1.9141,2.2187 2.5684,4.5703 0.1912,0.6873 0.4877,1.5819 0.6582,1.9883 0.4025,0.9578 0.3926,1.3213 -0.051,1.7226 -0.2716,0.2452 -0.536,0.2962 -1.0508,0.1992 -0.5816,-0.1092 -0.6855,-0.075 -0.6855,0.2149 0,0.4521 0.7379,1.2246 1.1699,1.2246 0.4611,0 0.6858,0.4787 1.0469,2.2246 0.1678,0.8115 0.4768,1.7061 0.6855,1.9883 0.7372,0.9972 1.8802,5.9115 1.9492,8.3789 0.025,0.8919 0.059,1.7615 0.076,1.9316 0.017,0.1703 0.4703,0.8561 1.0058,1.5254 1.0505,1.3123 1.623,2.3462 2.1915,3.959 0.1988,0.5639 0.447,1.0548 0.5527,1.0918 0.1058,0.037 2.5107,0.154 5.3437,0.2598 2.8329,0.1059 5.4865,0.273 5.8965,0.373 0.41,0.1 0.9668,0.4022 1.2364,0.6719 l 0,0 c 0.5499,0.5499 0.9286,0.6123 1.4453,0.2344 0.5619,-0.4109 0.2912,-1.6067 -0.6738,-2.9825 l -0.8145,-1.1621 0.3125,-0.6543 c 0.3374,-0.7078 1.5023,-1.4316 2.3047,-1.4316 0.5592,0 1.5472,-0.7843 1.9375,-1.5391 0.178,-0.3441 0.2832,-1.1141 0.2832,-2.123 0,-1.2716 0.1013,-1.8093 0.4961,-2.7285 0.6933,-1.6148 0.6833,-1.8571 -0.092,-2.0196 -1.4067,-0.2949 -1.5002,-1.0956 -0.2031,-1.7382 0.8946,-0.4431 1.1341,-0.6809 1.0117,-1 -0.057,-0.1495 0.074,-0.5128 0.291,-0.8086 0.4436,-0.6043 0.7813,-2.1275 0.7813,-3.5274 0,-1.1626 0.3903,-2.1301 1.0293,-2.5488 0.5547,-0.3634 0.8769,-1.3027 0.8769,-2.5703 0,-1.105 0.5892,-3.156 1.2559,-4.3809 0.4102,-0.7538 0.625,-0.9609 0.9961,-0.9609 0.4461,0 0.4646,0.045 0.3594,0.8105 -0.061,0.446 -0.3732,1.3898 -0.6934,2.0957 -0.6376,1.4056 -0.7203,2.2389 -0.3203,3.2227 0.6991,1.7195 0.5177,3.8523 -0.3848,4.5097 l -0.498,0.3633 0.5254,1.17 c 0.5334,1.1885 0.5341,1.2845 0.068,2.8476 -0.3092,1.0376 0.082,9.7674 0.5235,11.7109 0.3289,1.4459 1.1214,2.7832 1.9238,3.2442 0.6402,0.3679 2.6004,0.6597 6.3301,0.9414 1.5074,0.1139 2.961,0.2903 3.2304,0.3926 0.3356,0.128 0.6588,0.118 1.0235,-0.033 0.3749,-0.1553 0.4672,-0.2351 0.3906,-0.4375 0.1142,0.021 0.2131,0.012 0.2793,-0.023 0.455,-0.2435 0.9344,-0.1778 1.5254,0.209 1.1374,0.7443 4.3314,1.2768 3.9492,0.6582 -0.4622,-0.7478 0.975,-1.0172 1.5117,-0.2832 0.4535,0.6202 0.5802,0.6112 2.0996,-0.1641 1.273,-0.6494 1.8009,-0.742 2.4864,-0.4296 0.6757,0.3078 1.2176,0.2293 2.4199,-0.3516 1.7404,-0.8409 2.3247,-2.1662 1.5742,-3.5684 -0.4799,-0.8968 -0.3703,-5.1169 0.1875,-7.2402 0.2181,-0.8301 0.072,-1.5091 -0.584,-2.709 -1.0763,-1.9704 -0.8294,-3.4638 0.6817,-4.1269 0.5698,-0.2501 1.8611,-0.9489 2.8711,-1.5528 1.571,-0.9391 1.9746,-1.0342 2.7871,-0.664 1.0186,0.4642 2.0547,2.4867 2.0547,4.0117 0,1.3144 0.3754,2.1426 0.9726,2.1426 0.7806,0 2.8304,2.6464 4.7793,6.1699 1.3923,2.5173 2.0873,3.3618 3.3438,4.0644 1.06,0.5927 1.6616,1.2261 1.8105,1.9082 0.1225,0.5614 0.2777,1.2075 0.3457,1.4375 0.08,0.2679 2.289,0.4979 6.1465,0.6387 5.4485,0.1989 6.1602,0.1499 7.4609,-0.5137 1.8701,-0.9541 2.1047,-0.9204 4.1387,0.6016 l -0.01,0 c 2.0534,1.5365 2.4444,1.5947 3.2207,0.4863 1.4722,-2.1018 0.5744,-4.2268 -4,-9.4707 -2.4614,-2.8217 -3.559,-4.4148 -4.0273,-5.8418 -0.3541,-1.0791 -1.2213,-2.607 -1.9258,-3.3945 -0.7045,-0.7876 -1.2812,-1.6717 -1.2812,-1.9648 0,-0.2931 -0.9206,-1.375 -2.0469,-2.4043 -1.1888,-1.0865 -2.3834,-2.63 -2.8477,-3.6797 -0.4399,-0.9945 -1.3217,-2.4397 -1.959,-3.2129 -0.6374,-0.7732 -1.1582,-1.5795 -1.1582,-1.791 0,-0.2115 -0.4548,-1.2842 -1.0117,-2.3848 -0.8613,-1.7019 -1.141,-1.9694 -1.8672,-1.7871 -1.7174,0.431 -1.2696,-0.5831 0.7735,-1.752 2.1751,-1.2445 3.25,-2.3927 3.25,-3.4707 0,-0.3441 0.52,-1.278 1.1543,-2.0761 0.6343,-0.7981 1.2463,-1.8253 1.3613,-2.2832 0.1149,-0.458 0.7991,-1.1136 1.5195,-1.4571 0.8139,-0.3881 1.8248,-1.4316 2.6719,-2.7558 1.215,-1.8993 1.4947,-2.1244 2.5742,-2.0664 2.044,0.1104 2.1619,0.041 2.1719,-1.252 0.01,-2.1492 0.7463,-3.0534 3.0488,-3.7383 2.7744,-0.8252 2.6142,-1.8887 -0.5097,-3.3672 -1.4314,-0.6775 -1.9549,-0.7161 -5.2168,-0.3964 -2.3112,0.2264 -5.491,0.215 -8.7754,-0.029 -2.8329,-0.2106 -5.2832,-0.3848 -5.4453,-0.3848 -0.1621,-8e-4 -1.0643,0.7081 -2.0039,1.5742 -1.2277,1.1317 -1.7071,1.8691 -1.7071,2.6231 0,1.2423 -0.4367,1.6446 -2.4804,2.2851 -2.0574,0.6447 -3.1762,1.7222 -4.2286,4.0703 -0.4851,1.0824 -1.065,2.0804 -1.289,2.2188 -0.224,0.1384 -0.7417,0.9077 -1.1504,1.709 -0.7656,1.5007 -3.6734,4.1117 -4.1016,3.6836 -0.1325,-0.1326 -0.041,-1.5245 0.2032,-3.0938 0.3433,-2.177 0.3422,-3.3146 0,-4.7969 -0.3411,-1.4962 -0.34,-2.1079 0.01,-2.6679 0.638,-1.0216 0.5693,-1.3818 -0.3086,-1.6114 -0.5369,-0.1403 -0.7637,-0.5217 -0.7637,-1.2851 0,-1.8854 -1.2605,-3.4529 -3.0078,-3.7481 -0.8476,-0.1424 -1.723,-0.1498 -1.9433,-0.014 -0.2203,0.1362 -1.38,-0.036 -2.5781,-0.3848 -1.57,-0.4562 -2.8364,-0.5625 -4.5332,-0.3809 l -2.3536,0.252 0.02,0.1133 -0.082,-0.059 -1.125,-0.2344 c -1.3416,-0.2812 -0.4755,-0.2689 -10.9316,-0.1699 l -8.4707,0.082 -0.9316,1.418 c -1.0614,1.6156 -1.8711,3.1081 -1.8711,3.4492 0,0.1277 0.1767,0.5973 0.3925,1.043 0.5413,1.1181 0.2816,1.9937 -1.0527,3.5664 -0.7041,0.8301 -1.1738,1.6265 -1.4941,2.5312 -0.257,0.726 -0.6478,1.7664 -0.8692,2.3125 -0.2215,0.546 -0.3283,1.0388 -0.2383,1.0938 0.09,0.056 0.4867,-0.1535 0.8809,-0.4668 0.3942,-0.3132 0.7899,-0.5703 0.8809,-0.5703 0.2903,0 0.1727,0.6407 -0.3047,1.666 -0.51,1.0954 -0.8672,2.7313 -0.8672,3.9726 0,1.9788 -3.057,10.0039 -3.8106,10.0039 -0.539,0 -1.2056,-1.7557 -1.4316,-3.7695 -0.062,-0.5525 -0.3235,-1.4026 -0.582,-1.8887 -0.3925,-0.7389 -0.4746,-1.1533 -0.4746,-2.5253 -0.01,-2.1272 -0.2188,-2.9823 -0.92,-3.7149 -0.9508,-0.9933 -1.7562,-4.4187 -2.0527,-8.7246 -0.1399,-2.0312 -0.3328,-2.459 -1.1055,-2.459 -1.0532,0 -1.7964,-1.6938 -1.3086,-2.9805 0.5239,-1.3821 0.5111,-1.8534 -0.062,-2.5351 -0.9026,-1.0727 -1.8868,-1.548 -4.1992,-2.0274 -1.189,-0.2466 -2.3303,-0.5396 -2.5371,-0.6503 -0.1442,-0.077 -0.2621,-0.132 -0.3711,-0.1582 z m 124.9473,0.9589 -16.5215,1.5157 c 0,10.6095 -0.5545,22.2801 -1.666,35.0117 l 8.6387,0.4551 c 4.1428,-11.1148 7.3258,-23.4426 9.5488,-36.9825 z m -177.6016,0.7129 c -0.2175,0.015 -0.4448,0.1451 -0.5664,0.3418 -0.2205,0.3567 -1.1946,0.4126 -3.8672,0.2227 -1.9647,-0.1393 -4.1717,-0.2112 -4.9062,-0.1602 -2.9394,0.208 -7.5112,0.1073 -8.6817,-0.1914 -1.0943,-0.2793 -1.2383,-0.2252 -1.2383,0.4551 10e-5,1.2042 -0.5395,1.2743 -3.0703,0.3984 -2.5805,-0.8926 -6.2859,-0.8783 -6.8457,0.027 -0.2366,0.3828 -0.5067,0.3079 -1.1914,-0.3301 -0.549,-0.5118 -1.1075,-0.7222 -1.4707,-0.5547 -0.3221,0.1486 -2.8541,0.3675 -5.625,0.4863 -2.7709,0.1189 -5.1978,0.3879 -5.3945,0.5977 -0.1967,0.2099 -0.4548,1.4128 -0.5723,2.6719 -0.1175,1.2592 -0.361,3.1461 -0.5429,4.1953 -0.3791,2.1864 -0.306,15.5508 0.1,18.125 0.2307,1.4648 0.1526,1.8244 -0.5313,2.4433 -1.0034,0.9079 -1.0209,1.8192 -0.053,2.6954 1.1105,1.005 2.1531,3.9385 1.5976,4.4941 -0.294,0.2939 -0.4394,2.3689 -0.4394,6.248 0,5.553 -0.04,5.8557 -0.9043,6.8868 -0.7318,0.8727 -0.836,1.2614 -0.5449,2.0332 0.1978,0.5246 0.404,2.6691 0.457,4.7675 l 0.096,3.8165 1.457,0.4843 c 1.6088,0.5356 2.8731,0.3207 2.8731,-0.4883 0,-0.2882 0.1793,-0.6341 0.3984,-0.7695 0.5899,-0.3645 2.2735,0.8732 2.2735,1.6719 0,0.3798 0.1277,0.8225 0.2851,0.9824 l 0,0 c 0.5322,0.5409 3.4501,-0.055 4.7304,-0.9668 1.303,-0.9277 3.0432,-1.0836 5.9668,-0.5352 l 1.2676,0.2363 -0.2266,-1.4511 c -0.1246,-0.7986 -0.4024,-2.3965 -0.6191,-3.5508 -0.3218,-1.7139 -0.2507,-2.8967 0.3945,-6.4571 0.4344,-2.3975 0.7911,-5.9646 0.7911,-7.9257 l 0,-3.5664 1.5097,0.7714 c 1.8819,0.9609 2.3566,0.9618 3.918,0.01 1.4692,-0.8958 2.8649,-0.96 3.8965,-0.1797 0.8746,0.6615 3.23,0.7333 4.5351,0.1387 0.7387,-0.3366 1.4278,-0.2512 3.4375,0.4277 2.6303,0.8884 3.6875,0.8244 3.6875,-0.2265 0,-0.5103 0.2652,-0.5841 1.4317,-0.3946 4.9957,0.8118 4.8046,0.8384 5.9062,-0.8261 l 0.6953,-1.0489 c -0.1162,0.2135 -0.2925,0.4899 -0.5996,0.9356 l -0.9336,1.3555 0.5938,0.2617 c 0.4829,0.2127 0.6391,0.4388 0.8379,1.2148 0.1311,0.5247 0.1928,1.3208 0.1308,1.7676 -0.1253,0.8992 0.042,1.2167 1.5899,3.0293 0.9393,1.0996 2.9908,2.8564 3.914,3.3516 0.3523,0.1889 1.0881,0.3375 1.752,0.3535 0.6295,0.016 1.7028,0.1282 2.3848,0.25 1.8243,0.3257 2.5358,0.099 3.8418,-1.2305 0.6256,-0.6366 1.2111,-1.455 1.4042,-1.9609 0.4851,-1.2701 0.3324,-2.9418 -0.416,-4.5391 -0.3802,-0.8111 -0.5293,-1.334 -0.4121,-1.4512 0.2551,-0.255 -0.8172,-1.1252 -1.7051,-1.3828 -0.3903,-0.1133 -1.8873,-0.3288 -3.3281,-0.4785 -2.7438,-0.2851 -3.0921,-0.3966 -5.1914,-1.6855 -0.9851,-0.605 -1.2898,-0.6973 -2.3223,-0.6973 -0.6533,0 -1.3389,0.058 -1.5234,0.1289 -0.3139,0.1203 -0.3143,0.1372 -0.01,0.2441 0.01,0 0.01,0.012 0.018,0.016 l -1.2265,-0.1973 c -1.0823,-0.1731 -1.6289,-0.4975 -1.9219,-1.1406 -0.2507,-0.5501 -0.973,-1.0679 -1.8613,-1.334 -2.9549,-0.8854 -9.9541,-7.1241 -10.5196,-9.377 -0.2218,-0.8837 -0.4087,-1.0051 -1.2597,-0.8144 -0.5496,0.1232 -2.201,0.3244 -3.67,0.4472 -1.4689,0.123 -3.1325,0.398 -3.6972,0.6114 -1.2247,0.4622 -3.3196,-0.113 -4.2813,-1.1758 -0.8471,-0.9356 -0.8904,-3.936 -0.074,-5.1817 0.5004,-0.7637 0.9456,-0.9609 2.1699,-0.9609 1.0108,0 1.4513,-0.1422 1.2832,-0.4141 -0.3841,-0.6215 3.8571,-0.01 5.7266,0.8301 1.4932,0.6683 1.5501,0.6692 1.8027,-0.014 0.1434,-0.3877 0.4434,-0.8183 0.668,-0.9571 0.2245,-0.1388 0.4082,-0.8443 0.4082,-1.5664 0,-0.7221 0.1817,-1.3125 0.4023,-1.3125 0.2205,0 0.6343,-0.5581 0.92,-1.2402 0.2858,-0.682 0.9628,-1.6553 1.5058,-2.1641 0.6821,-0.6391 0.9883,-1.3219 0.9883,-2.207 0,-0.7045 0.2143,-1.343 0.4766,-1.418 2.4691,-0.7079 4.1013,-1.524 4.3007,-2.1523 0.1289,-0.406 0.5479,-0.7383 0.9317,-0.7383 0.8873,0 3.3773,-2.757 2.6953,-2.9844 -0.066,-0.022 -0.1365,-0.03 -0.209,-0.025 z m 280.9746,49.6074 c 4.0418,0 7.3748,1.6163 10.002,4.8497 2.6271,3.1323 3.9414,7.0238 3.9414,11.6718 0,4.547 -1.3636,8.2333 -4.0918,11.0625 -2.7282,2.8292 -6.4677,4.2442 -11.2168,4.2442 -4.648,0 -8.5376,-1.9201 -11.6699,-5.7598 -3.1324,-3.9407 -4.6993,-9.1445 -4.6993,-15.6113 0,-1.2126 0.1007,-2.9294 0.3028,-5.1524 5.1532,-3.5365 10.9648,-5.3047 17.4316,-5.3047 z m -182.0742,15.502 c -2.3397,0.01 -4.5465,0.2646 -12.0195,1.1797 -0.2815,0.2815 -0.4239,0.5737 -0.4239,0.8769 l -0.5195,46.6114 c 0,0.3248 0.1308,0.6171 0.3906,0.8769 0.2599,0.2599 0.5521,0.3907 0.877,0.3907 l 4.8066,0 c 0.3248,0 0.6287,-0.1308 0.9102,-0.3907 0.2815,-0.2598 0.4219,-0.5521 0.4219,-0.8769 l -0.098,-15.7852 c 0,-0.3681 0.1423,-0.6181 0.4238,-0.748 0.3031,-0.13 0.5955,-0.032 0.877,0.2929 0.6064,0.7146 1.2774,1.3203 2.0137,1.8184 0.7579,0.4764 1.5367,0.8667 2.3379,1.1699 0.8229,0.2815 1.6574,0.4873 2.5019,0.6172 0.8662,0.13 1.7218,0.1953 2.5664,0.1953 2.5769,0 4.9151,-0.477 7.0156,-1.4297 2.1222,-0.9529 3.9297,-2.2411 5.4239,-3.8652 1.5158,-1.6458 2.6849,-3.5513 3.5078,-5.7168 0.8229,-2.1656 1.2344,-4.4613 1.2344,-6.8867 0,-2.9234 -0.4328,-5.5115 -1.2989,-7.7637 -0.8663,-2.2521 -2.0564,-4.1461 -3.5722,-5.6836 -1.5159,-1.5592 -3.2926,-2.7302 -5.3282,-3.5098 -2.0139,-0.8011 -4.1906,-1.2011 -6.5293,-1.2011 -2.6655,-0.089 -4.1157,-0.1757 -5.5195,-0.1719 z m -30.1934,0.053 c -0.5327,0.015 -1.0908,0.055 -1.6738,0.1192 -2.1872,0 -4.1138,0.3576 -5.7812,1.0722 -1.6675,0.693 -3.8658,1.7871 -5.295,3.2813 -0.3032,0.1733 -0.5531,0.2476 -0.748,0.2266 -0.1949,-0.022 -0.3795,-0.1197 -0.5527,-0.293 -1.1044,-1.4941 -1.8289,-2.5768 -3.4746,-3.2481 -1.6458,-0.693 -3.3572,-1.039 -5.1329,-1.039 -6.7446,0.039 -8.7733,-0.1741 -16.7929,0.584 -0.3898,1e-4 -0.7359,0.1423 -1.0391,0.4238 -0.2815,0.2599 -0.4219,0.5945 -0.4219,1.0059 l -0.3261,31.9316 c 0,0.4115 0.1423,0.7459 0.4238,1.0058 0.2815,0.2382 0.6277,0.3575 1.0391,0.3575 l 4.3847,0 c 0.3682,0 0.6719,-0.1405 0.9102,-0.4219 0.2598,-0.2815 0.3886,-0.5949 0.3886,-0.9414 -4.6293,-25.2638 17.9872,-34.9299 15.1368,0 0,0.4115 0.1403,0.7459 0.4218,1.0058 0.2815,0.2382 0.6296,0.3575 1.0411,0.3575 l 4.3847,0 c 0.3681,0 0.672,-0.1404 0.9102,-0.4219 0.2598,-0.2815 0.3887,-0.5949 0.3887,-0.9414 1.2346,-32.3799 20.6588,-35.2264 14,0 0,0.4115 0.1402,0.7459 0.4218,1.0058 0.2814,0.2383 0.6295,0.3575 1.041,0.3575 l 4.3848,0 c 0.3681,0 0.6699,-0.1405 0.9082,-0.4219 0.2598,-0.2815 0.3905,-0.5949 0.3906,-0.9414 0.048,-11.9304 7.1777,-34.5383 -9.3379,-34.0645 z m -97.996,0.1192 c -2.8368,0 -5.3501,0.4885 -7.5372,1.4629 -2.1871,0.9529 -4.0272,2.2508 -5.5214,3.8965 -1.4942,1.6458 -2.6306,3.5745 -3.4102,5.7832 -0.7796,2.2089 -1.1699,4.5469 -1.1699,7.0156 0,2.5986 0.4326,4.9906 1.2988,7.1777 0.8662,2.1872 2.068,4.0716 3.6055,5.6524 1.5591,1.5808 3.4109,2.8153 5.5547,3.7031 2.1439,0.8878 4.4819,1.332 7.0156,1.332 1.9706,0 3.8127,-0.2712 5.5234,-0.8125 1.7107,-0.563 3.2587,-1.3533 4.6446,-2.3711 1.3859,-1.0178 2.5876,-2.2521 3.6054,-3.7031 1.0394,-1.4508 6.3449,-8.0267 6.9512,-9.8457 0.065,-0.1516 0.086,-0.3361 0.064,-0.5527 0,-0.2165 -0.054,-0.4222 -0.1622,-0.6172 -0.1083,-0.1948 -0.2716,-0.368 -0.4882,-0.5196 -0.1949,-0.1516 -0.4545,-0.2387 -0.7793,-0.2597 l -4.2559,0 c -0.6496,0.065 -1.0612,0.3245 -1.2344,0.7793 -0.5197,1.0611 -5.6174,6.9235 -6.332,7.7031 -0.693,0.7795 -1.4409,1.4295 -2.2422,1.9492 -0.8012,0.5197 -1.6454,0.9081 -2.5332,1.168 -0.8662,0.2382 -1.7314,0.3574 -2.5976,0.3574 -1.6025,0 -3.0543,-0.2153 -4.3536,-0.6484 -1.2777,-0.4547 -2.3717,-1.1489 -3.2812,-2.0801 -0.9095,-0.9312 -1.6132,-2.1099 -2.1113,-3.5391 -0.498,-1.4509 -0.7461,-3.1737 -0.7461,-5.166 0,-1.5808 0.2268,-3.0845 0.6816,-4.5137 0.4547,-1.4293 1.1258,-2.6866 2.0137,-3.7695 0.8878,-1.0827 1.9819,-1.9384 3.2812,-2.5664 1.3209,-0.6496 2.8266,-0.9727 4.5157,-0.9727 0.6929,0 1.4178,0.1077 2.1757,0.3243 0.7579,0.1949 1.4943,0.5083 2.209,0.9414 0.7362,0.4331 1.4285,0.9849 2.0781,1.6562 0.6496,0.6496 1.2131,1.4399 1.6895,2.3711 0.087,0.2382 0.2385,0.4113 0.4551,0.5195 0.2165,0.1085 0.4434,0.1641 0.6816,0.1641 l 4.2871,0 c 0.4547,0 0.8335,-0.1845 1.1367,-0.5527 0.3248,-0.3898 0.3903,-0.8667 0.1954,-1.4297 -0.4764,-1.2992 -1.1687,-2.5549 -2.0782,-3.7676 -0.8879,-1.2126 -1.9704,-2.274 -3.248,-3.1836 -1.256,-0.9311 -2.6962,-1.6772 -4.3203,-2.2402 -1.6025,-0.5631 -3.3561,-0.8457 -5.2617,-0.8457 z m 37.4199,0 c -1.6241,0 -3.2374,0.2172 -4.8399,0.6504 -1.6025,0.4114 -3.0868,1.0287 -4.4511,1.8515 -1.3643,0.8014 -2.545,1.7858 -3.5411,2.9551 -0.9961,1.1695 -7.5496,6.4101 -7.9394,7.9043 -0.2383,0.9529 -0.194,1.5797 0.1308,1.8828 0.3465,0.3032 0.8656,0.4551 1.5586,0.4551 l 2.8262,-0.033 c 0.5631,0 1.0168,-0.1076 1.3633,-0.3242 0.3681,-0.2165 0.6605,-0.5858 0.8769,-1.1055 0.3682,-0.9096 6.7064,-5.5521 7.2911,-6.1152 0.5847,-0.563 1.223,-0.9956 1.916,-1.2989 0.7146,-0.3248 1.4511,-0.5301 2.209,-0.6171 0.7579,-0.1083 1.4943,-0.1622 2.2089,-0.1622 0.8447,0 1.6791,0.086 2.502,0.2598 0.8229,0.1515 1.5593,0.3997 2.209,0.7461 0.6496,0.3248 1.1688,0.7363 1.5586,1.2344 0.3897,0.4764 0.5839,1.0397 0.584,1.6894 -0.022,0.6931 -0.2063,1.3314 -0.5528,1.9161 -0.3248,0.5631 -0.9402,1.061 -1.8496,1.4941 -0.823,0.3249 -1.8093,0.5747 -2.957,0.748 -1.126,0.1515 -2.3279,0.3035 -3.6055,0.4551 -1.2561,0.1516 -2.5327,0.3458 -3.832,0.584 -1.2993,0.2166 -2.5242,0.5415 -3.6719,0.9746 -0.8879,0.3249 -1.7435,0.7575 -2.5664,1.2988 -0.8229,0.5198 -1.5593,1.1697 -2.209,1.9493 -15.048,23.4811 36.1364,26.7819 26.8321,-13.1875 -0.693,-1.2993 -1.6352,-2.403 -2.8262,-3.3125 -1.1911,-0.9312 -2.5774,-1.6465 -4.1582,-2.1446 -1.5808,-0.498 -3.269,-0.748 -5.0664,-0.748 z m 132.5078,0 c -1.7541,0.043 -3.4538,0.2933 -5.0996,0.748 -1.6241,0.4548 -3.0643,1.1028 -4.3203,1.9473 -1.256,0.8446 -2.2636,1.8848 -3.0215,3.1191 -0.7363,1.2128 -1.1035,2.6203 -1.1035,4.2227 l 0,0 c 0,1.5592 0.3018,2.8898 0.9082,3.9942 0.628,1.1044 1.4413,2.0466 2.4375,2.8262 1.0177,0.7796 2.1656,1.4295 3.4433,1.9492 1.2993,0.5197 2.6203,0.9736 3.9629,1.3633 1.3643,0.3898 2.6852,0.7474 3.9629,1.0722 1.2992,0.3248 2.4453,0.6826 3.4414,1.0723 1.0178,0.3899 1.8312,0.8455 2.4375,1.3652 0.628,0.5197 0.9414,1.1696 0.9414,1.9492 0,0.6496 -0.2174,1.2016 -0.6504,1.6563 -0.4115,0.4547 -0.9729,0.8335 -1.6875,1.1367 -0.693,0.3031 -1.4948,0.53 -2.4043,0.6816 -0.8879,0.1299 -1.8185,0.1954 -2.7929,0.1954 -0.7796,0 -1.5699,-0.066 -2.3711,-0.1954 -0.7796,-0.1299 -1.5276,-0.3568 -2.2422,-0.6816 -0.693,-0.3249 -1.3314,-0.7478 -1.916,-1.2676 -0.5847,-0.5413 -1.0827,-1.2123 -1.4942,-2.0136 -0.1515,-0.3031 -0.3477,-0.5302 -0.5859,-0.6817 -0.2166,-0.1729 -0.4318,-0.2598 -0.6484,-0.2598 l -4.6446,0 c -0.1516,1e-4 -0.3151,0.031 -0.4883,0.096 -0.1516,0.065 -0.2919,0.163 -0.4218,0.2929 -0.1083,0.13 -0.1948,0.3031 -0.2598,0.5196 -0.043,0.195 -0.011,0.4448 0.098,0.748 0.6063,1.8839 1.462,3.4741 2.5664,4.7734 1.1044,1.2777 2.3484,2.318 3.7343,3.1192 1.3859,0.8012 2.8588,1.3742 4.418,1.7207 1.5592,0.3682 3.1069,0.5527 4.6445,0.5527 4.6341,0 8.1761,-0.8979 10.6231,-2.6953 2.447,-1.8189 3.6699,-4.3533 3.6699,-7.6016 0,-1.5375 -0.3135,-2.8584 -0.9414,-3.9628 -0.628,-1.1045 -1.4509,-2.0465 -2.4688,-2.8262 -1.0177,-0.8012 -2.1869,-1.4607 -3.5078,-1.9805 -1.2993,-0.5414 -2.6318,-1.0183 -3.9961,-1.4297 -1.3426,-0.4331 -2.6752,-0.8234 -3.9961,-1.1699 -1.2992,-0.3464 -2.4568,-0.7137 -3.4746,-1.1035 -1.0178,-0.4114 -1.8407,-0.8768 -2.4687,-1.3965 -0.628,-0.5414 -0.9414,-1.2028 -0.9414,-1.9824 0,-0.8662 0.248,-1.5488 0.7461,-2.0469 0.5197,-0.5196 1.1273,-0.9081 1.8203,-1.168 0.7146,-0.2598 1.428,-0.4232 2.1426,-0.4882 0.7147,-0.087 1.2663,-0.1289 1.6562,-0.129 0.7579,1e-4 1.5175,0.066 2.2754,0.1954 0.7796,0.13 1.5045,0.3453 2.1758,0.6484 0.6713,0.3032 1.2674,0.7261 1.7871,1.2676 0.5414,0.5197 0.9413,1.1792 1.2012,1.9804 0.2381,0.4548 0.6285,0.6836 1.1699,0.6836 l 3.9629,0 c 0.1516,0 0.3342,-0.012 0.5508,-0.033 0.2165,-0.043 0.4126,-0.1201 0.5859,-0.2285 0.1732,-0.1082 0.3017,-0.2602 0.3887,-0.4551 0.087,-0.2165 0.087,-0.4972 0,-0.8437 -0.4764,-1.6892 -1.1802,-3.1177 -2.1114,-4.2871 -0.9312,-1.191 -2.0137,-2.1543 -3.248,-2.8906 -1.2127,-0.7362 -2.5432,-1.2669 -3.9941,-1.5918 -1.4509,-0.3247 -2.9354,-0.4883 -4.4512,-0.4883 z m -40.3125,4.3828 c 6.093,-0.01 13.2517,4.5167 13.6758,13.3535 -0.3663,12.7506 -13.4522,13.8397 -20.9512,0.4551 -3.8449,-9.2709 1.1824,-13.8034 7.2754,-13.8086 z m -86.6172,14.6601 c 0.1462,0.016 0.2793,0.068 0.3984,0.1543 0.2599,0.1516 0.3887,0.444 0.3887,0.877 0,0.3032 -0.021,0.7474 -0.064,1.332 -0.043,0.5847 -0.1741,1.225 -0.3907,1.918 -0.1949,0.6929 -0.5179,1.3967 -0.9726,2.1113 -0.4332,0.693 -1.0504,1.2987 -1.8516,1.8184 -0.5414,0.3682 -1.2451,0.7142 -2.1113,1.039 -0.8446,0.3032 -1.7541,0.5533 -2.7285,0.7481 -0.9745,0.195 -1.961,0.3032 -2.9571,0.3242 -0.9745,0 -1.8628,-0.1192 -2.664,-0.3574 -0.7796,-0.2383 -1.4179,-0.6286 -1.916,-1.1699 -0.4764,-0.563 -0.7149,-1.3206 -0.7149,-2.2735 0,-0.9094 0.2173,-1.646 0.6504,-2.209 0.4331,-0.5847 1.0176,-1.05 1.7539,-1.3964 0.7579,-0.3682 1.6232,-0.6507 2.5977,-0.8457 0.9961,-0.2165 2.0479,-0.4107 3.1523,-0.584 1.126,-0.1948 2.274,-0.3891 3.4434,-0.584 1.191,-0.2166 2.36,-0.4991 3.5078,-0.8457 0.1732,-0.054 0.3323,-0.073 0.4785,-0.057 z"
       id="path3945-6-8-8-7" />
  </g>
</svg>
