<?xml version="1.0" encoding="UTF-8" standalone="no"?>
<!-- Created with Inkscape (http://www.inkscape.org/) -->

<svg
   xmlns:dc="http://purl.org/dc/elements/1.1/"
   xmlns:cc="http://creativecommons.org/ns#"
   xmlns:rdf="http://www.w3.org/1999/02/22-rdf-syntax-ns#"
   xmlns:svg="http://www.w3.org/2000/svg"
   xmlns="http://www.w3.org/2000/svg"
   xmlns:sodipodi="http://sodipodi.sourceforge.net/DTD/sodipodi-0.dtd"
   xmlns:inkscape="http://www.inkscape.org/namespaces/inkscape"
   width="100.37104mm"
   height="30.355967mm"
   viewBox="0 0 355.64541 107.56051"
   id="svg4531"
   version="1.1"
   inkscape:version="0.91 r13725"
   sodipodi:docname="logo-badge-desktop.svg">
  <defs
     id="defs4533" />
  <sodipodi:namedview
     id="base"
     pagecolor="#ffffff"
     bordercolor="#666666"
     borderopacity="1.0"
     inkscape:pageopacity="0.0"
     inkscape:pageshadow="2"
     inkscape:zoom="2.8"
     inkscape:cx="136.07264"
     inkscape:cy="65.047249"
     inkscape:document-units="px"
     inkscape:current-layer="layer1"
     showgrid="false"
     fit-margin-top="0"
     fit-margin-left="0"
     fit-margin-right="0"
     fit-margin-bottom="0"
     inkscape:window-width="1916"
     inkscape:window-height="1041"
     inkscape:window-x="0"
     inkscape:window-y="18"
     inkscape:window-maximized="0"
     showguides="false" />
  <metadata
     id="metadata4536">
    <rdf:RDF>
      <cc:Work
         rdf:about="">
        <dc:format>image/svg+xml</dc:format>
        <dc:type
           rdf:resource="http://purl.org/dc/dcmitype/StillImage" />
        <dc:title></dc:title>
      </cc:Work>
    </rdf:RDF>
  </metadata>
  <g
     inkscape:label="Layer 1"
     inkscape:groupmode="layer"
     id="layer1"
     transform="translate(367.29545,-390.05921)">
    <path
       style="color:#000000;clip-rule:nonzero;display:inline;overflow:visible;visibility:visible;opacity:1;isolation:auto;mix-blend-mode:normal;color-interpolation:sRGB;color-interpolation-filters:linearRGB;solid-color:#000000;solid-opacity:1;fill:#1a1a1a;fill-opacity:1;fill-rule:nonzero;stroke:none;stroke-width:5;stroke-linecap:butt;stroke-linejoin:miter;stroke-miterlimit:4;stroke-dasharray:none;stroke-dashoffset:0;stroke-opacity:1;color-rendering:auto;image-rendering:auto;shape-rendering:auto;text-rendering:auto;enable-background:accumulate"
       d="m -367.29545,390.05921 13.47502,0 13.47502,0 13.47501,0 13.47509,0 13.47502,0 13.47501,0 13.47502,0 13.47502,0 0,107.56051 -107.80021,0 z"
       id="rect5356-4-2-9-2"
       inkscape:connector-curvature="0"
       sodipodi:nodetypes="cccccccccccc" />
    <path
       inkscape:connector-curvature="0"
       style="color:#000000;clip-rule:nonzero;display:inline;overflow:visible;visibility:visible;opacity:1;isolation:auto;mix-blend-mode:normal;color-interpolation:sRGB;color-interpolation-filters:linearRGB;solid-color:#000000;solid-opacity:1;fill:none;fill-opacity:1;fill-rule:nonzero;stroke:#ff2a2a;stroke-width:0.98000199;stroke-linecap:round;stroke-linejoin:round;stroke-miterlimit:10;stroke-dasharray:none;stroke-dashoffset:0;stroke-opacity:1;color-rendering:auto;image-rendering:auto;shape-rendering:auto;text-rendering:auto;enable-background:accumulate"
       d="m -317.70779,423.32859 a 16.829175,16.829175 0 0 1 -16.82915,16.82917 16.829175,16.829175 0 0 1 -16.82915,-16.82917 16.829175,16.829175 0 0 1 16.82915,-16.82918 16.829175,16.829175 0 0 1 16.82915,16.82918 z"
       id="circle4761-7-8-3" />
    <path
       style="color:#000000;clip-rule:nonzero;display:inline;overflow:visible;visibility:visible;opacity:1;isolation:auto;mix-blend-mode:normal;color-interpolation:sRGB;color-interpolation-filters:linearRGB;solid-color:#000000;solid-opacity:1;fill:none;fill-opacity:1;fill-rule:nonzero;stroke:#ff2a2a;stroke-width:0.98000199;stroke-linecap:butt;stroke-linejoin:miter;stroke-miterlimit:4;stroke-dasharray:none;stroke-dashoffset:0;stroke-opacity:1;color-rendering:auto;image-rendering:auto;shape-rendering:auto;text-rendering:auto;enable-background:accumulate"
       d="m -350.87595,460.70691 74.96121,0 0,14.08373 -74.96121,0 z"
       id="rect5433-6-34-4-2"
       inkscape:connector-curvature="0"
       sodipodi:nodetypes="ccccc" />
    <path
       sodipodi:nodetypes="cccccccccccc"
       inkscape:connector-curvature="0"
       id="path4258"
       d="m -253.29545,390.05921 30.20566,0 30.20567,0 30.20564,0 30.20582,0 30.20566,0 30.205644,0 30.205664,0 30.205663,0 0,107.56051 -241.645421,0 z"
       style="color:#000000;clip-rule:nonzero;display:inline;overflow:visible;visibility:visible;opacity:1;isolation:auto;mix-blend-mode:normal;color-interpolation:sRGB;color-interpolation-filters:linearRGB;solid-color:#000000;solid-opacity:1;fill:#1a1a1a;fill-opacity:1;fill-rule:nonzero;stroke:none;stroke-width:5;stroke-linecap:butt;stroke-linejoin:miter;stroke-miterlimit:4;stroke-dasharray:none;stroke-dashoffset:0;stroke-opacity:1;color-rendering:auto;image-rendering:auto;shape-rendering:auto;text-rendering:auto;enable-background:accumulate" />
    <g
       transform="matrix(1.6385564,0,0,1.6385564,789.97419,-324.41547)"
       id="g4176"
       style="fill:#ffffff;stroke:#ffffff">
      <path
         sodipodi:nodetypes="ccssssccsssscc"
         d="m -616.53279,452.76335 0,34.58608 6.3491,0 c 4.7619,0 7.3517,-2.58978 7.3517,-7.3934 l 0,-19.79928 c 0,-4.80362 -2.5898,-7.3934 -7.3517,-7.3934 z m 4.4277,4.09352 1.7544,0 c 2.1303,0 3.091,1.12781 3.091,3.59228 l 0,19.21448 c 0,2.46447 -0.9607,3.59227 -3.091,3.59227 l -1.7544,0 z"
         style="font-style:normal;font-variant:normal;font-weight:normal;font-stretch:normal;font-size:medium;line-height:125%;font-family:'Bebas Kai';-inkscape-font-specification:'Bebas Kai';letter-spacing:0px;word-spacing:0px;fill:#ffffff;fill-opacity:1;stroke:#ffffff;stroke-width:1.33665979px;stroke-linecap:butt;stroke-linejoin:miter;stroke-opacity:1"
         id="path4435-5"
         inkscape:connector-curvature="0" />
      <path
         d="m -586.05519,462.20351 0,-4.09352 -12.4477,0 0,29.23944 12.4477,0 0,-4.09353 -8.02,0 0,-8.68828 6.4744,0 0,-4.09352 -6.4744,0 0,-8.27059 8.02,0 z"
         style="font-style:normal;font-variant:normal;font-weight:normal;font-stretch:normal;font-size:medium;line-height:125%;font-family:'Bebas Kai';-inkscape-font-specification:'Bebas Kai';letter-spacing:0px;word-spacing:0px;fill:#ffffff;fill-opacity:1;stroke:#ffffff;stroke-width:1.33665979px;stroke-linecap:butt;stroke-linejoin:miter;stroke-opacity:1"
         id="path4437-6"
         inkscape:connector-curvature="0" />
      <path
         d="m -568.81759,458.10999 -4.4277,0 0,22.55614 c 0,2.1303 -0.9608,2.92394 -2.5063,2.92394 -1.5455,0 -2.5062,-0.79364 -2.5062,-2.92394 l 0,-22.55614 -4.2606,0 0,22.68145 c 0,4.59477 2.6315,6.97569 6.8085,6.97569 4.2606,0 6.8923,-2.38092 6.8923,-6.97569 l 0,-22.68145 z"
         style="font-style:normal;font-variant:normal;font-weight:normal;font-stretch:normal;font-size:medium;line-height:125%;font-family:'Bebas Kai';-inkscape-font-specification:'Bebas Kai';letter-spacing:0px;word-spacing:0px;fill:#ffffff;fill-opacity:1;stroke:#ffffff;stroke-width:1.33665979px;stroke-linecap:butt;stroke-linejoin:miter;stroke-opacity:1"
         id="path4439-4"
         inkscape:connector-curvature="0" />
      <path
         d="m -559.13999,457.69229 c -4.2187,0 -6.5997,2.38092 -6.5997,6.55798 l 0,0.62656 c 0,3.42519 1.3785,5.84789 5.4302,9.27308 2.9657,2.50624 3.8429,3.96821 3.8429,5.80612 l 0,0.96072 c 0,1.83791 -0.8355,2.75686 -2.5063,2.75686 -1.6708,0 -2.5062,-0.91895 -2.5062,-2.75686 l 0,-2.08853 -4.2606,0.41771 0,1.96321 c 0,4.17707 2.4645,6.55799 6.8504,6.55799 4.3859,0 6.8503,-2.38092 6.8503,-6.55799 l 0,-1.46197 c 0,-3.50873 -1.5037,-5.93142 -5.5554,-9.35662 -2.9658,-2.50623 -3.7176,-3.9682 -3.7176,-5.6808 l 0,-0.37594 c 0,-1.67082 0.7937,-2.548 2.2556,-2.548 1.462,0 2.2556,0.87718 2.2556,2.548 l 0,1.08604 4.2606,-0.41771 0,-0.75187 c 0,-4.17706 -2.3809,-6.55798 -6.5998,-6.55798 z"
         style="font-style:normal;font-variant:normal;font-weight:normal;font-stretch:normal;font-size:medium;line-height:125%;font-family:'Bebas Kai';-inkscape-font-specification:'Bebas Kai';letter-spacing:0px;word-spacing:0px;fill:#ffffff;fill-opacity:1;stroke:#ffffff;stroke-width:1.33665979px;stroke-linecap:butt;stroke-linejoin:miter;stroke-opacity:1"
         id="path4441-3"
         inkscape:connector-curvature="0" />
      <path
         sodipodi:nodetypes="ccsssccsssc"
         d="m -528.43389,452.76335 -4.4277,0 0,27.90278 c 0,2.1303 -0.9608,2.92394 -2.5063,2.92394 -1.5455,0 -2.5062,-0.79364 -2.5062,-2.92394 l 0,-27.90278 -4.2606,0 0,28.02809 c 0,4.59477 2.6315,6.97569 6.8085,6.97569 4.2606,0 6.8923,-2.38092 6.8923,-6.97569 z"
         style="font-style:normal;font-variant:normal;font-weight:normal;font-stretch:normal;font-size:medium;line-height:125%;font-family:'Bebas Kai';-inkscape-font-specification:'Bebas Kai';letter-spacing:0px;word-spacing:0px;fill:#ffffff;fill-opacity:1;stroke:#ffffff;stroke-width:1.33665979px;stroke-linecap:butt;stroke-linejoin:miter;stroke-opacity:1"
         id="path4443-5"
         inkscape:connector-curvature="0" />
      <path
         d="m -515.28539,472.35377 5.2631,-14.24378 -4.5947,0 -3.1329,9.31485 -0.083,0 -3.2581,-9.31485 -4.6783,0 5.2631,14.0767 -5.5972,15.16274 4.5947,0 3.4252,-10.27558 0.083,0 3.6341,10.27558 4.6783,0 -5.5973,-14.99566 z"
         style="font-style:normal;font-variant:normal;font-weight:normal;font-stretch:normal;font-size:medium;line-height:125%;font-family:'Bebas Kai';-inkscape-font-specification:'Bebas Kai';letter-spacing:0px;word-spacing:0px;fill:#ffffff;fill-opacity:1;stroke:#ffffff;stroke-width:1.33665979px;stroke-linecap:butt;stroke-linejoin:miter;stroke-opacity:1"
         id="path4445-0"
         inkscape:connector-curvature="0" />
    </g>
  </g>
</svg>
