<?xml version="1.0" encoding="UTF-8" standalone="no"?>
<!-- Created with Inkscape (http://www.inkscape.org/) -->

<svg
   xmlns:dc="http://purl.org/dc/elements/1.1/"
   xmlns:cc="http://creativecommons.org/ns#"
   xmlns:rdf="http://www.w3.org/1999/02/22-rdf-syntax-ns#"
   xmlns:svg="http://www.w3.org/2000/svg"
   xmlns="http://www.w3.org/2000/svg"
   xmlns:sodipodi="http://sodipodi.sourceforge.net/DTD/sodipodi-0.dtd"
   xmlns:inkscape="http://www.inkscape.org/namespaces/inkscape"
   width="43.542854mm"
   height="58.840759mm"
   viewBox="0 0 154.2857 208.49088"
   id="svg4531"
   version="1.1"
   inkscape:version="0.91 r13725"
   sodipodi:docname="logo-badge.svg">
  <defs
     id="defs4533" />
  <sodipodi:namedview
     id="base"
     pagecolor="#ffffff"
     bordercolor="#666666"
     borderopacity="1.0"
     inkscape:pageopacity="0.0"
     inkscape:pageshadow="2"
     inkscape:zoom="3.959798"
     inkscape:cx="71.24265"
     inkscape:cy="98.320883"
     inkscape:document-units="px"
     inkscape:current-layer="text5205"
     showgrid="false"
     fit-margin-top="0"
     fit-margin-left="0"
     fit-margin-right="0"
     fit-margin-bottom="0"
     inkscape:window-width="1916"
     inkscape:window-height="1041"
     inkscape:window-x="0"
     inkscape:window-y="18"
     inkscape:window-maximized="0"
     showguides="false" />
  <metadata
     id="metadata4536">
    <rdf:RDF>
      <cc:Work
         rdf:about="">
        <dc:format>image/svg+xml</dc:format>
        <dc:type
           rdf:resource="http://purl.org/dc/dcmitype/StillImage" />
        <dc:title></dc:title>
      </cc:Work>
    </rdf:RDF>
  </metadata>
  <g
     inkscape:label="Layer 1"
     inkscape:groupmode="layer"
     id="layer1"
     transform="translate(639.99999,-308.11676)">
    <path
       style="color:#000000;clip-rule:nonzero;display:inline;overflow:visible;visibility:visible;opacity:1;isolation:auto;mix-blend-mode:normal;color-interpolation:sRGB;color-interpolation-filters:linearRGB;solid-color:#000000;solid-opacity:1;fill:#1a1a1a;fill-opacity:1;fill-rule:nonzero;stroke:none;stroke-width:5;stroke-linecap:butt;stroke-linejoin:miter;stroke-miterlimit:4;stroke-dasharray:none;stroke-dashoffset:0;stroke-opacity:1;color-rendering:auto;image-rendering:auto;shape-rendering:auto;text-rendering:auto;enable-background:accumulate"
       d="m -639.99999,308.11676 19.2857,0 19.2857,0 19.2857,0 19.2858,0 19.2857,0 19.2857,0 19.2857,0 19.2857,0 0,208.49088 -154.2857,0 z"
       id="rect5356-4-2-9-2"
       inkscape:connector-curvature="0"
       sodipodi:nodetypes="cccccccccccc" />
    <path
       inkscape:connector-curvature="0"
       style="color:#000000;clip-rule:nonzero;display:inline;overflow:visible;visibility:visible;opacity:1;isolation:auto;mix-blend-mode:normal;color-interpolation:sRGB;color-interpolation-filters:linearRGB;solid-color:#000000;solid-opacity:1;fill:none;fill-opacity:1;fill-rule:nonzero;stroke:#ff2a2a;stroke-width:1.40259743;stroke-linecap:round;stroke-linejoin:round;stroke-miterlimit:10;stroke-dasharray:none;stroke-dashoffset:0;stroke-opacity:1;color-rendering:auto;image-rendering:auto;shape-rendering:auto;text-rendering:auto;enable-background:accumulate"
       d="m -569.02919,355.73253 a 24.086235,24.086235 0 0 1 -24.0862,24.08623 24.086235,24.086235 0 0 1 -24.0862,-24.08623 24.086235,24.086235 0 0 1 24.0862,-24.08624 24.086235,24.086235 0 0 1 24.0862,24.08624 z"
       id="circle4761-7-8-3" />
    <path
       style="color:#000000;clip-rule:nonzero;display:inline;overflow:visible;visibility:visible;opacity:1;isolation:auto;mix-blend-mode:normal;color-interpolation:sRGB;color-interpolation-filters:linearRGB;solid-color:#000000;solid-opacity:1;fill:none;fill-opacity:1;fill-rule:nonzero;stroke:#ff2a2a;stroke-width:1.40259743;stroke-linecap:butt;stroke-linejoin:miter;stroke-miterlimit:4;stroke-dasharray:none;stroke-dashoffset:0;stroke-opacity:1;color-rendering:auto;image-rendering:auto;shape-rendering:auto;text-rendering:auto;enable-background:accumulate"
       d="m -616.50009,409.22909 107.2859,0 0,20.1569 -107.2859,0 z"
       id="rect5433-6-34-4-2"
       inkscape:connector-curvature="0"
       sodipodi:nodetypes="ccccc" />
    <path
       inkscape:connector-curvature="0"
       id="path4435-5"
       style="font-style:normal;font-variant:normal;font-weight:normal;font-stretch:normal;font-size:medium;line-height:125%;font-family:'Bebas Kai';-inkscape-font-specification:'Bebas Kai';letter-spacing:0px;word-spacing:0px;fill:#ffffff;fill-opacity:1;stroke:#ffffff;stroke-width:1.33665979px;stroke-linecap:butt;stroke-linejoin:miter;stroke-opacity:1"
       d="m -616.53279,452.76335 0,34.58608 6.3491,0 c 4.7619,0 7.3517,-2.58978 7.3517,-7.3934 l 0,-19.79928 c 0,-4.80362 -2.5898,-7.3934 -7.3517,-7.3934 z m 4.4277,4.09352 1.7544,0 c 2.1303,0 3.091,1.12781 3.091,3.59228 l 0,19.21448 c 0,2.46447 -0.9607,3.59227 -3.091,3.59227 l -1.7544,0 z"
       sodipodi:nodetypes="ccssssccsssscc" />
    <path
       inkscape:connector-curvature="0"
       id="path4437-6"
       style="font-style:normal;font-variant:normal;font-weight:normal;font-stretch:normal;font-size:medium;line-height:125%;font-family:'Bebas Kai';-inkscape-font-specification:'Bebas Kai';letter-spacing:0px;word-spacing:0px;fill:#ffffff;fill-opacity:1;stroke:#ffffff;stroke-width:1.33665979px;stroke-linecap:butt;stroke-linejoin:miter;stroke-opacity:1"
       d="m -586.05519,462.20351 0,-4.09352 -12.4477,0 0,29.23944 12.4477,0 0,-4.09353 -8.02,0 0,-8.68828 6.4744,0 0,-4.09352 -6.4744,0 0,-8.27059 8.02,0 z" />
    <path
       inkscape:connector-curvature="0"
       id="path4439-4"
       style="font-style:normal;font-variant:normal;font-weight:normal;font-stretch:normal;font-size:medium;line-height:125%;font-family:'Bebas Kai';-inkscape-font-specification:'Bebas Kai';letter-spacing:0px;word-spacing:0px;fill:#ffffff;fill-opacity:1;stroke:#ffffff;stroke-width:1.33665979px;stroke-linecap:butt;stroke-linejoin:miter;stroke-opacity:1"
       d="m -568.81759,458.10999 -4.4277,0 0,22.55614 c 0,2.1303 -0.9608,2.92394 -2.5063,2.92394 -1.5455,0 -2.5062,-0.79364 -2.5062,-2.92394 l 0,-22.55614 -4.2606,0 0,22.68145 c 0,4.59477 2.6315,6.97569 6.8085,6.97569 4.2606,0 6.8923,-2.38092 6.8923,-6.97569 l 0,-22.68145 z" />
    <path
       inkscape:connector-curvature="0"
       id="path4441-3"
       style="font-style:normal;font-variant:normal;font-weight:normal;font-stretch:normal;font-size:medium;line-height:125%;font-family:'Bebas Kai';-inkscape-font-specification:'Bebas Kai';letter-spacing:0px;word-spacing:0px;fill:#ffffff;fill-opacity:1;stroke:#ffffff;stroke-width:1.33665979px;stroke-linecap:butt;stroke-linejoin:miter;stroke-opacity:1"
       d="m -559.13999,457.69229 c -4.2187,0 -6.5997,2.38092 -6.5997,6.55798 l 0,0.62656 c 0,3.42519 1.3785,5.84789 5.4302,9.27308 2.9657,2.50624 3.8429,3.96821 3.8429,5.80612 l 0,0.96072 c 0,1.83791 -0.8355,2.75686 -2.5063,2.75686 -1.6708,0 -2.5062,-0.91895 -2.5062,-2.75686 l 0,-2.08853 -4.2606,0.41771 0,1.96321 c 0,4.17707 2.4645,6.55799 6.8504,6.55799 4.3859,0 6.8503,-2.38092 6.8503,-6.55799 l 0,-1.46197 c 0,-3.50873 -1.5037,-5.93142 -5.5554,-9.35662 -2.9658,-2.50623 -3.7176,-3.9682 -3.7176,-5.6808 l 0,-0.37594 c 0,-1.67082 0.7937,-2.548 2.2556,-2.548 1.462,0 2.2556,0.87718 2.2556,2.548 l 0,1.08604 4.2606,-0.41771 0,-0.75187 c 0,-4.17706 -2.3809,-6.55798 -6.5998,-6.55798 z" />
    <path
       inkscape:connector-curvature="0"
       id="path4443-5"
       style="font-style:normal;font-variant:normal;font-weight:normal;font-stretch:normal;font-size:medium;line-height:125%;font-family:'Bebas Kai';-inkscape-font-specification:'Bebas Kai';letter-spacing:0px;word-spacing:0px;fill:#ffffff;fill-opacity:1;stroke:#ffffff;stroke-width:1.33665979px;stroke-linecap:butt;stroke-linejoin:miter;stroke-opacity:1"
       d="m -528.43389,452.76335 -4.4277,0 0,27.90278 c 0,2.1303 -0.9608,2.92394 -2.5063,2.92394 -1.5455,0 -2.5062,-0.79364 -2.5062,-2.92394 l 0,-27.90278 -4.2606,0 0,28.02809 c 0,4.59477 2.6315,6.97569 6.8085,6.97569 4.2606,0 6.8923,-2.38092 6.8923,-6.97569 z"
       sodipodi:nodetypes="ccsssccsssc" />
    <path
       inkscape:connector-curvature="0"
       id="path4445-0"
       style="font-style:normal;font-variant:normal;font-weight:normal;font-stretch:normal;font-size:medium;line-height:125%;font-family:'Bebas Kai';-inkscape-font-specification:'Bebas Kai';letter-spacing:0px;word-spacing:0px;fill:#ffffff;fill-opacity:1;stroke:#ffffff;stroke-width:1.33665979px;stroke-linecap:butt;stroke-linejoin:miter;stroke-opacity:1"
       d="m -515.28539,472.35377 5.2631,-14.24378 -4.5947,0 -3.1329,9.31485 -0.083,0 -3.2581,-9.31485 -4.6783,0 5.2631,14.0767 -5.5972,15.16274 4.5947,0 3.4252,-10.27558 0.083,0 3.6341,10.27558 4.6783,0 -5.5973,-14.99566 z" />
    <g
       style="font-style:normal;font-variant:normal;font-weight:normal;font-stretch:normal;font-size:12.31820869px;line-height:125%;font-family:'Bebas Kai';-inkscape-font-specification:'Bebas Kai';letter-spacing:0px;word-spacing:0px;fill:#ffffff;fill-opacity:1;stroke:none;stroke-width:1px;stroke-linecap:butt;stroke-linejoin:miter;stroke-opacity:1"
       id="text5205">
      <text
         xml:space="preserve"
         style="font-style:normal;font-variant:normal;font-weight:normal;font-stretch:normal;font-size:6.9205308px;line-height:125%;font-family:'Bebas Kai';-inkscape-font-specification:'Bebas Kai';letter-spacing:0px;word-spacing:0px;fill:#ff2a2a;fill-opacity:1;stroke:none;stroke-width:1px;stroke-linecap:butt;stroke-linejoin:miter;stroke-opacity:1"
         x="-617.41846"
         y="500.78876"
         id="text5264"
         sodipodi:linespacing="125%"><tspan
           sodipodi:role="line"
           id="tspan5266"
           x="-617.41846"
           y="500.78876">[<tspan
   style="fill:#ffffff"
   id="tspan5278">UX</tspan>INTERVENTION<tspan
   style="fill:#ffffff"
   id="tspan5276">] </tspan></tspan></text>
    </g>
  </g>
</svg>
